<?xml version="1.0" encoding="utf-8"?>
<!-- Generator: Adobe Illustrator 22.1.0, SVG Export Plug-In . SVG Version: 6.00 Build 0)  -->
<svg version="1.1" id="Capa_1" xmlns="http://www.w3.org/2000/svg" xmlns:xlink="http://www.w3.org/1999/xlink" x="0px" y="0px"
	 viewBox="0 0 704 694" style="enable-background:new 0 0 704 694;" xml:space="preserve">
<style type="text/css">
	.st0{opacity:0.2;fill:#C5D3DD;}
	.st1{fill:#596C76;}
	.st2{fill:#C8EFFE;}
	.st3{fill:#99E6FC;}
	.st4{fill:#C5D3DD;}
	.st5{fill:#B6C4CF;}
	.st6{fill:#D9E7EC;}
	.st7{fill:#FDB441;}
	.st8{fill:#FEA613;}
	.st9{fill:#465A61;}
</style>
<circle class="st0" cx="352" cy="346" r="343"/>
<g>
	<g>
		<path class="st1" d="M142.7,436.2V213.8c0-11.8,9.6-21.3,21.3-21.3h375.9c11.8,0,21.3,9.6,21.3,21.3v222.4H142.7z"/>
		<path class="st1" d="M142.7,430.9V213.8c0-11.8,9.6-21.3,21.3-21.3h375.9c11.8,0,21.3,9.6,21.3,21.3V431L142.7,430.9L142.7,430.9z
			"/>
		<g>
			<path class="st2" d="M534.9,436.2H169.1V230.9c0-5.2,4.2-9.3,9.3-9.3h347.2c5.2,0,9.3,4.2,9.3,9.3L534.9,436.2L534.9,436.2z"/>
			<path class="st3" d="M534.9,230.9V431h-16.8V230.9c0-5.2-4.2-9.3-9.3-9.3h16.8C530.7,221.5,534.9,225.6,534.9,230.9z"/>
		</g>
		<path class="st4" d="M392.8,483.4h-81.7c0,0-0.7,48.1-6.9,65.6h95.4C393.6,531.4,392.8,483.4,392.8,483.4L392.8,483.4z"/>
		<path class="st2" d="M393.4,500.2h-82.9c0.5-9.7,0.6-16.8,0.6-16.8h81.7C392.8,483.4,392.9,490.5,393.4,500.2z"/>
		<path class="st5" d="M393.4,500.2h-82.9c0.5-9.7,0.6-16.8,0.6-16.8h81.7C392.8,483.4,392.9,490.5,393.4,500.2z"/>
		<g>
			<path class="st5" d="M426.4,555.3H277.6c-3.5,0-6.3-2.9-6.3-6.3s2.9-6.3,6.3-6.3h148.8c3.5,0,6.3,2.9,6.3,6.3
				S429.8,555.3,426.4,555.3z"/>
		</g>
		<path class="st6" d="M539.9,485.2H164c-11.8,0-21.3-9.6-21.3-21.3v-32.9h418.6v32.9C561.3,475.6,551.7,485.2,539.9,485.2
			L539.9,485.2z"/>
		<path class="st4" d="M561.3,430.9v32.9c0,11.8-9.6,21.3-21.3,21.3h-16.8c11.8,0,21.3-9.6,21.3-21.3v-32.9H561.3z"/>
		<g>
			<path class="st5" d="M366.4,464.2h-28.8c-3.4,0-6.1-2.8-6.1-6.1s2.8-6.1,6.1-6.1h28.8c3.4,0,6.1,2.8,6.1,6.1
				S369.7,464.2,366.4,464.2z"/>
		</g>
	</g>
	<g>
		<path class="st7" d="M335,146.5l-110.3,191c-7.6,13.1,1.9,29.5,17,29.5h220.5c15.1,0,24.6-16.4,17-29.5L369,146.5
			C361.5,133.4,342.5,133.4,335,146.5L335,146.5z"/>
		<path class="st8" d="M462.2,366.9h-3.6c6.1-5.9,8.2-15.6,3.4-24L351.7,152c-3.2-5.5-8.3-8.7-13.7-9.6c8.7-8.8,24.3-7.5,31,4.1
			l110.2,191C486.8,350.5,477.4,366.9,462.2,366.9z"/>
		<g>
			<path class="st1" d="M367.1,323c0,8.3-6.8,15.1-15.1,15.1c-8.3,0-15.1-6.8-15.1-15.1s6.8-15.1,15.1-15.1
				C360.3,307.9,367.1,314.6,367.1,323z"/>
		</g>
		<g>
			<path class="st9" d="M367.1,323c0,8.3-6.8,15.1-15.1,15.1c-5.8,0-10.8-3.3-13.3-8c0.7,0.1,1.2,0.1,1.9,0.1
				c8.3,0,15.1-6.8,15.1-15.2c0-2.6-0.7-5-1.8-7.2C361.4,308.8,367.1,315.2,367.1,323L367.1,323z"/>
		</g>
		<g>
			<g>
				<g>
					<path class="st1" d="M352.1,285.1c-7.7,0-13.9-6.2-13.9-13.9v-66.2c0-7.7,6.2-13.9,13.9-13.9c7.7,0,13.9,6.2,13.9,13.9v66.2
						C366,278.8,359.7,285.1,352.1,285.1L352.1,285.1z"/>
				</g>
			</g>
		</g>
		<g>
			<g>
				<g>
					<path class="st9" d="M366,205v66.2c0,7.7-6.2,13.9-13.9,13.9c-2.5,0-4.7-0.7-6.8-1.7c4.3-2.4,7.1-6.9,7.1-12.1v-66.2
						c0-5.2-2.9-9.7-7.1-12.1c2-1.1,4.3-1.8,6.8-1.8C359.7,191.1,366,197.3,366,205z"/>
				</g>
			</g>
		</g>
	</g>
</g>
</svg>
