<?xml version="1.0" encoding="utf-8"?>
<!-- Generator: Adobe Illustrator 22.1.0, SVG Export Plug-In . SVG Version: 6.00 Build 0)  -->
<svg version="1.1" id="Capa_1" xmlns="http://www.w3.org/2000/svg" xmlns:xlink="http://www.w3.org/1999/xlink" x="0px" y="0px"
	 viewBox="0 0 704 694" style="enable-background:new 0 0 704 694;" xml:space="preserve">
<style type="text/css">
	.st0{opacity:0.1;fill:#428DFF;enable-background:new    ;}
	.st1{fill:#E8EDFC;}
	.st2{fill:#CAD9FC;}
	.st3{fill:#A4C2F7;}
	.st4{fill:#D7E4F9;}
	.st5{fill:#A4C3FD;}
	.st6{fill:#FFFFFF;}
	.st7{fill:#428DFF;}
	.st8{fill:#9CCB3B;}
</style>
<circle class="st0" cx="352" cy="346" r="343"/>
<g id="Page-1">
	<g id="_x30_73---Done-Task">
		<path id="Path" class="st1" d="M469.5,225.2v139.5c-1.9-0.2-3.9-0.3-5.8-0.3c-39.4,0.1-72.1,30.4-75.1,69.7
			c-3,39.3,24.8,74.2,63.8,80.2c-2,0.6-4,0.9-6.1,0.9H225.8c-12.8,0-23.2-10.4-23.2-23.2V225.2c0-12.8,10.4-23.2,23.2-23.2h220.4
			C459.1,202,469.5,212.4,469.5,225.2L469.5,225.2z"/>
		<path id="Path_1_" class="st2" d="M446.3,202h-17.4c12.8,0,23.2,10.4,23.2,23.2v139.5c-1.9-0.2-3.9-0.3-5.8-0.3
			c-39.4,0.1-72.1,30.4-75.1,69.7c-3,39.3,24.8,74.2,63.8,80.2c-2,0.6-4,0.9-6.1,0.9h17.4c2.1,0,4.1-0.3,6.1-0.9
			c-39-6-66.7-40.9-63.8-80.2s35.7-69.7,75.1-69.7c1.9,0,3.9,0.1,5.8,0.3V225.2C469.5,212.4,459.1,202,446.3,202z"/>
		<circle id="Oval" class="st3" cx="307.1" cy="231" r="11.6"/>
		<circle id="Oval_1_" class="st3" cx="249" cy="231" r="11.6"/>
		<circle id="Oval_2_" class="st3" cx="423.1" cy="231" r="11.6"/>
		<circle id="Oval_3_" class="st3" cx="365.1" cy="231" r="11.6"/>
		<path id="Path_2_" class="st4" d="M539.1,439.8c0,41.7-33.8,75.4-75.4,75.4c-3.8,0-7.5-0.3-11.3-0.9h-0.1
			c-39-6-66.7-40.9-63.8-80.2s35.7-69.7,75.1-69.7c1.9,0,3.9,0.1,5.8,0.3C508.8,367.7,539.1,400.4,539.1,439.8z"/>
		<path id="Path_3_" class="st5" d="M469.5,364.7c-1.9-0.2-3.9-0.3-5.8-0.3c-3,0-6.1,0.2-9.1,0.6c38.1,4.2,66.9,36.3,67.1,74.6
			s-28.5,70.6-66.6,75.1c2.8,0.4,5.7,0.6,8.6,0.6c40.5,0,73.8-32,75.4-72.5C540.6,402.3,509.9,367.8,469.5,364.7L469.5,364.7z"/>
		<path id="Path_4_" class="st1" d="M446.3,480.4c-3.1,0-6-1.2-8.2-3.4l-17.4-17.4c-4.4-4.6-4.3-11.8,0.1-16.3
			c4.5-4.5,11.7-4.5,16.3-0.1l9.2,9.2l44-44c4.6-4.4,11.8-4.3,16.3,0.1c4.5,4.5,4.5,11.7,0.1,16.3L454.5,477
			C452.3,479.2,449.4,480.4,446.3,480.4z"/>
		<path id="Path_5_" class="st6" d="M225.8,515.2h17.4c-12.8,0-23.2-10.4-23.2-23.2V225.2c0-12.8,10.4-23.2,23.2-23.2h-17.4
			c-12.8,0-23.2,10.4-23.2,23.2V492C202.6,504.8,213,515.2,225.8,515.2z"/>
		<path id="Rectangle" class="st6" d="M196.8,445.6h11.6V492h-11.6V445.6z"/>
		<g>
			<circle id="Oval_4_" class="st7" cx="202.6" cy="468.8" r="5.8"/>
			<path id="Path_6_" class="st7" d="M237.4,300.6c0,3.2,2.6,5.8,5.8,5.8h34.8c3.2,0,5.8-2.6,5.8-5.8c0-3.2-2.6-5.8-5.8-5.8h-34.8
				C240,294.8,237.4,297.4,237.4,300.6z"/>
			<path id="Path_7_" class="st7" d="M295.5,300.6c0,3.2,2.6,5.8,5.8,5.8h127.6c3.2,0,5.8-2.6,5.8-5.8c0-3.2-2.6-5.8-5.8-5.8H301.3
				C298.1,294.8,295.5,297.4,295.5,300.6z"/>
			<path id="Path_8_" class="st7" d="M237.4,335.4c0,3.2,2.6,5.8,5.8,5.8h185.6c3.2,0,5.8-2.6,5.8-5.8s-2.6-5.8-5.8-5.8H243.2
				C240,329.6,237.4,332.2,237.4,335.4z"/>
			<path id="Path_9_" class="st7" d="M243.2,376h63.8c3.2,0,5.8-2.6,5.8-5.8s-2.6-5.8-5.8-5.8h-63.8c-3.2,0-5.8,2.6-5.8,5.8
				S240,376,243.2,376z"/>
			<path id="Path_10_" class="st7" d="M243.2,410.8h116c3.2,0,5.8-2.6,5.8-5.8c0-3.2-2.6-5.8-5.8-5.8h-116c-3.2,0-5.8,2.6-5.8,5.8
				C237.4,408.2,240,410.8,243.2,410.8z"/>
			<path id="Shape" class="st7" d="M475.3,359.5V225.2c0-16-13-29-29-29h-17.4v-17.4c0-3.2-2.6-5.8-5.8-5.8c-3.2,0-5.8,2.6-5.8,5.8
				v17.4h-46.4v-17.4c0-3.2-2.6-5.8-5.8-5.8s-5.8,2.6-5.8,5.8v17.4h-46.4v-17.4c0-3.2-2.6-5.8-5.8-5.8c-3.2,0-5.8,2.6-5.8,5.8v17.4
				h-46.4v-17.4c0-3.2-2.6-5.8-5.8-5.8s-5.8,2.6-5.8,5.8v17.4h-17.4c-16,0-29,13-29,29v220.4c0,3.2,2.6,5.8,5.8,5.8s5.8-2.6,5.8-5.8
				v-174c3.2,0,5.8-2.6,5.8-5.8s-2.6-5.8-5.8-5.8v-34.8c0-9.6,7.8-17.4,17.4-17.4h17.4v6.9c-8,2.8-12.8,11-11.4,19.4
				c1.4,8.4,8.7,14.5,17.2,14.5s15.7-6.1,17.2-14.5c1.4-8.4-3.4-16.5-11.4-19.4v-6.9h46.4v6.9c-8,2.8-12.8,11-11.4,19.4
				c1.4,8.4,8.7,14.5,17.2,14.5c8.5,0,15.7-6.1,17.2-14.5c1.4-8.4-3.4-16.5-11.4-19.4v-6.9h46.4v6.9c-8,2.8-12.8,11-11.4,19.4
				c1.4,8.4,8.7,14.5,17.2,14.5s15.7-6.1,17.2-14.5c1.4-8.4-3.4-16.5-11.4-19.4v-6.9h46.4v6.9c-8,2.8-12.8,11-11.4,19.4
				c1.4,8.4,8.7,14.5,17.2,14.5s15.7-6.1,17.2-14.5c1.4-8.4-3.4-16.5-11.4-19.4v-6.9h17.4c9.6,0,17.4,7.8,17.4,17.4V260
				c-3.2,0-5.8,2.6-5.8,5.8s2.6,5.8,5.8,5.8v87c-36.5,0-68.6,24.3-78.3,59.6c-9.7,35.2,5.3,72.6,36.7,91.3H225.8
				c-9.6,0-17.4-7.8-17.4-17.4c0-3.2-2.6-5.8-5.8-5.8s-5.8,2.6-5.8,5.8c0,16,13,29,29,29h220.4c2.2,0,4.4-0.3,6.5-0.8
				c44.4,6.2,85.4-24.7,91.6-69.1S519.7,365.8,475.3,359.5z M249,236.8c-3.2,0-5.8-2.6-5.8-5.8s2.6-5.8,5.8-5.8s5.8,2.6,5.8,5.8
				S252.3,236.8,249,236.8z M307.1,236.8c-3.2,0-5.8-2.6-5.8-5.8s2.6-5.8,5.8-5.8c3.2,0,5.8,2.6,5.8,5.8S310.3,236.8,307.1,236.8z
				 M365.1,236.8c-3.2,0-5.8-2.6-5.8-5.8s2.6-5.8,5.8-5.8s5.8,2.6,5.8,5.8S368.3,236.8,365.1,236.8z M423.1,236.8
				c-3.2,0-5.8-2.6-5.8-5.8s2.6-5.8,5.8-5.8c3.2,0,5.8,2.6,5.8,5.8S426.3,236.8,423.1,236.8z M463.7,509.4
				c-38.4,0-69.6-31.2-69.6-69.6s31.2-69.6,69.6-69.6s69.6,31.2,69.6,69.6C533.3,478.2,502.1,509.4,463.7,509.4z"/>
			<path id="Path_11_" class="st7" d="M237.4,260h-5.8c-3.2,0-5.8,2.6-5.8,5.8s2.6,5.8,5.8,5.8h5.8c3.2,0,5.8-2.6,5.8-5.8
				S240.6,260,237.4,260z"/>
			<path id="Path_12_" class="st7" d="M266.4,271.6c3.2,0,5.8-2.6,5.8-5.8s-2.6-5.8-5.8-5.8h-5.8c-3.2,0-5.8,2.6-5.8,5.8
				s2.6,5.8,5.8,5.8H266.4z"/>
			<path id="Path_13_" class="st7" d="M295.5,260h-5.8c-3.2,0-5.8,2.6-5.8,5.8s2.6,5.8,5.8,5.8h5.8c3.2,0,5.8-2.6,5.8-5.8
				S298.7,260,295.5,260z"/>
			<path id="Path_14_" class="st7" d="M324.5,271.6c3.2,0,5.8-2.6,5.8-5.8s-2.6-5.8-5.8-5.8h-5.8c-3.2,0-5.8,2.6-5.8,5.8
				s2.6,5.8,5.8,5.8H324.5z"/>
			<path id="Path_15_" class="st7" d="M353.5,271.6c3.2,0,5.8-2.6,5.8-5.8s-2.6-5.8-5.8-5.8h-5.8c-3.2,0-5.8,2.6-5.8,5.8
				s2.6,5.8,5.8,5.8H353.5z"/>
			<path id="Path_16_" class="st7" d="M382.5,271.6c3.2,0,5.8-2.6,5.8-5.8s-2.6-5.8-5.8-5.8h-5.8c-3.2,0-5.8,2.6-5.8,5.8
				s2.6,5.8,5.8,5.8H382.5z"/>
			<path id="Path_17_" class="st7" d="M411.5,271.6c3.2,0,5.8-2.6,5.8-5.8s-2.6-5.8-5.8-5.8h-5.8c-3.2,0-5.8,2.6-5.8,5.8
				s2.6,5.8,5.8,5.8H411.5z"/>
			<path id="Path_18_" class="st7" d="M440.5,271.6c3.2,0,5.8-2.6,5.8-5.8s-2.6-5.8-5.8-5.8h-5.8c-3.2,0-5.8,2.6-5.8,5.8
				s2.6,5.8,5.8,5.8H440.5z"/>
			<path id="Shape_1_" class="st8" d="M486.2,404.3l-39.9,39.9l-5.1-5.1c-6.9-6.6-17.7-6.6-24.6,0c-6.8,6.8-6.8,17.8,0,24.6
				l17.4,17.4c3.3,3.3,7.7,5.1,12.3,5.1c4.6,0,9-1.8,12.3-5.1l52.2-52.2c6.8-6.8,6.8-17.8,0-24.6
				C503.9,397.7,493.1,397.7,486.2,404.3z M502.6,420.7l-52.2,52.2c-2.3,2.2-5.9,2.2-8.2,0l-17.4-17.4c-1.5-1.5-2.1-3.6-1.6-5.6
				c0.5-2,2.1-3.6,4.1-4.1c2-0.5,4.2,0.1,5.6,1.6l9.2,9.2c2.3,2.3,5.9,2.3,8.2,0l44-44c2.3-2.2,5.9-2.2,8.2,0
				C504.9,414.8,504.9,418.4,502.6,420.7z"/>
		</g>
	</g>
</g>
</svg>
